<svg xmlns="http://www.w3.org/2000/svg" xmlns:xlink="http://www.w3.org/1999/xlink" style="width: 0; height: 0; overflow: hidden; position: fixed;">

    <defs>
        <linearGradient id="gradientDark" x1="0%" y1="0%" x2="0%" y2="100%">
            <stop offset="0" style="stop-color: rgb(0,0,0); stop-opacity: 0.5;"/>
            <stop offset="1" style="stop-color: rgb(0,0,0); stop-opacity: 0.3;"/>
        </linearGradient>
        <filter id="shadowSmall">
            <feGaussianBlur in="SourceAlpha" stdDeviation="1"/>
            <feOffset dx="0" dy="1" result="offsetblur"/>
            <feFlood flood-color="rgba(0,0,0,0.75)"/>
            <feComposite in2="offsetblur" operator="in"/>
            <feMerge>
                <feMergeNode/>
                <feMergeNode in="SourceGraphic"/>
            </feMerge>
        </filter>
    </defs>

    <symbol id="icon-check" viewBox="0 0 14 11">
        <title>check</title>
        <path fill-rule="evenodd" clip-rule="evenodd" fill="url(#gradientDark)" d="M5.754,10.012c-0.185,0.185-0.484,0.185-0.669,0L4.937,9.864L4.937,9.865 	L4.779,9.706L4.083,9.01C4.081,9.007,4.082,9.003,4.079,9.001L0.892,5.79c-0.185-0.185-0.185-0.484,0-0.668l1.003-1.003 	c0.185-0.185,0.484-0.185,0.669,0L5.424,7l6.013-6.013c0.184-0.185,0.484-0.185,0.668,0l1.003,1.003 c0.184,0.184,0.184,0.484,0,0.668L5.754,10.012z"/>
    </symbol>

</svg>
